<svg width="87" height="101" xmlns="http://www.w3.org/2000/svg" xmlns:xlink="http://www.w3.org/1999/xlink" xml:space="preserve" overflow="hidden"><defs><clipPath id="clip0"><rect x="711" y="123" width="87" height="101"/></clipPath></defs><g clip-path="url(#clip0)" transform="translate(-711 -123)"><path d="M7.89159 88.5398 0 0 86.8075 0 78.9159 88.5398 43.3075 98.5487" fill="#0C73B8" transform="matrix(1 0 0 1.00911 711 123)"/><path d="M43.5 90.8496 72.1792 82.958 78.9159 7.12168 43.5 7.12168" fill="#30A9DC" transform="matrix(1 0 0 1.00911 711 123)"/><path d="M43.5 40.0354 18.0929 40.0354 19.0553 51.0066 43.5 51.0066ZM43.5 18.0929 16.1681 18.0929 17.1305 28.8717 43.5 28.8717ZM43.5 68.3297 19.6327 61.9779 20.9801 73.5266 43.5 79.6858Z" fill="#ECEDEE" transform="matrix(1 0 0 1.00911 711 123)"/><path d="M43.5 51.0066 56.781 51.0066 55.4336 65.0575 43.5 68.3297 43.5 79.6858 65.635 73.5266 70.6394 18.0929 43.5 18.0929 43.5 28.8717 58.8982 28.8717 57.7434 40.0354 43.5 40.0354Z" fill="#FFFFFF" transform="matrix(1 0 0 1.00911 711 123)"/></g></svg>