<svg width="48" height="43" xmlns="http://www.w3.org/2000/svg" xmlns:xlink="http://www.w3.org/1999/xlink" xml:space="preserve" overflow="hidden"><defs><clipPath id="clip0"><rect x="233" y="472" width="48" height="43"/></clipPath></defs><g clip-path="url(#clip0)" transform="translate(-233 -472)"><path d="M36.3521 15.4314 36.3521 14.7976C36.3521 13.6445 36.2714 12.5293 36.102 11.445L42.5281 11.451C44.9638 11.451 46.952 13.4362 46.952 15.849L46.952 34.9101C46.952 37.3179 44.9638 39.323 42.5281 39.323L4.90329 39.323C2.48254 39.323 0.498302 37.3179 0.498302 34.9101L0.498302 15.849C0.498302 13.4362 2.48254 11.445 4.90329 11.445L11.433 11.445C11.2226 12.5954 11.1185 13.7627 11.1221 14.9321 11.1221 22.587 15.9935 28.6982 24.078 28.6982 29.5782 28.6982 33.9254 25.8679 36.5156 21.132L31.5405 18.3325C29.7247 21.3393 28.0116 23.4122 24.1547 23.4122 20.0357 23.4122 17.309 19.9909 17.03 16.0772L16.9712 15.4324 36.3521 15.4324Z" fill="#006CB1" fill-rule="evenodd" transform="matrix(1.01007 0 0 1 233 472)"/><path d="M11.433 11.445C12.5482 5.27403 16.733 0.823195 23.9753 0.823195 31.1539 0.823195 35.0655 5.37668 36.102 11.445L30.3934 11.445C29.6749 8.17714 27.3947 6.15005 23.9753 6.15005 20.6586 6.15005 18.1292 8.34258 17.3668 11.445L11.433 11.445Z" fill="#1A171C" fill-rule="evenodd" transform="matrix(1.01007 0 0 1 233 472)"/><path d="M161.056 1.7919 165.52 1.7919 165.52 37.7424 161.056 37.7424ZM109.642 17.7246C110.886 16.2845 112.75 15.2391 114.774 15.2391 117.31 15.2391 119.275 16.4669 120.627 18.5358 122.08 16.5297 124.383 15.2391 126.873 15.2391 132.651 15.2391 134.078 19.7846 134.078 24.4487L134.078 37.7424 129.545 37.7424 129.545 25.0915C129.545 22.3758 128.919 19.5434 125.956 19.5434 122.237 19.5434 121.87 23.3554 121.87 26.6253L121.87 37.7424 117.104 37.7424 117.104 25.84C117.104 23.5159 117.104 19.5434 113.787 19.5434 110.056 19.5434 109.364 23.3086 109.364 26.6253L109.364 37.7424 104.928 37.7424 104.928 15.846 109.641 15.846 109.641 17.7246ZM75.6134 1.7919 80.0523 1.7919 80.0523 37.6996 75.6134 37.6996Z" fill="#1A171C" transform="matrix(1.01007 0 0 1 233 472)"/><path d="M63.4658 19.4597C60.771 19.4597 58.7588 21.2347 58.1698 23.7222L68.5913 23.7222C68.0262 21.132 66.2074 19.4597 63.4658 19.4597M73.4119 26.5187 73.4119 27.5163 57.8688 27.5163C58.0761 30.6675 60.2537 33.466 63.5704 33.466 66.6808 33.466 68.0631 31.8076 69.552 29.346L73.5215 31.6003C71.4486 35.4363 67.9605 37.7305 63.5644 37.7305 57.0397 37.7305 53.113 32.8232 53.113 26.6243 53.113 20.1982 56.6151 15.2381 63.4668 15.2381 70.2407 15.2391 73.4119 20.3028 73.4119 26.5187M92.5935 19.4737C89.9495 19.4737 87.9274 21.2775 87.3414 23.7949L97.6692 23.7949C97.0643 21.1569 95.2884 19.4737 92.5935 19.4737M102.372 26.5216 102.372 27.5581 87.0694 27.5581C87.2766 30.6884 89.4373 33.466 92.6962 33.466 95.7627 33.466 97.147 31.8076 98.606 29.4058L102.526 31.6402C100.472 35.4462 97.0503 37.7603 92.6822 37.7603 86.2701 37.7603 82.4102 32.8441 82.4102 26.6522 82.4102 20.248 85.8385 15.3288 92.5945 15.3288 99.2688 15.3278 102.372 20.3507 102.372 26.5216M141.942 26.4399C141.942 30.1493 144.102 33.466 147.991 33.466 151.933 33.466 154.21 30.3107 154.21 26.4399 154.21 22.6329 151.933 19.5424 147.991 19.5424 144.233 19.5424 141.942 22.7904 141.942 26.4399M142.162 18.5408C143.818 16.5416 146.129 15.2401 148.911 15.2401 155.039 15.2401 158.912 20.6108 158.912 26.3143 158.912 32.3179 155.286 37.7305 148.759 37.7305 146.124 37.7305 143.778 36.4548 142.161 34.5284L142.161 49.006 137.422 49.006 137.422 15.846 142.161 15.846 142.161 18.5408ZM178.055 19.4597C175.356 19.4597 173.345 21.2347 172.76 23.7222L183.233 23.7222C182.616 21.132 180.787 19.4597 178.055 19.4597M188.005 26.5187 188.005 27.5163 172.453 27.5163C172.666 30.6675 174.892 33.466 178.223 33.466 181.309 33.466 182.648 31.8076 184.141 29.346L188.165 31.6003C186.076 35.4363 182.616 37.7305 178.154 37.7305 171.623 37.7305 167.697 32.8232 167.697 26.6243 167.697 20.1982 171.209 15.2381 178.055 15.2381 184.891 15.2391 188.005 20.3028 188.005 26.5187M201.476 15.3278C195.229 15.3278 190.282 20.1982 190.282 26.5216 190.282 32.872 195.23 37.7594 201.476 37.7594 207.808 37.7594 212.776 32.872 212.776 26.5216 212.775 20.1982 207.808 15.3278 201.476 15.3278M201.476 33.2308C197.876 33.2308 194.938 30.1493 194.938 26.5226 194.938 22.891 197.875 19.8474 201.476 19.8474 205.17 19.8474 208.096 22.892 208.096 26.5226 208.095 30.1493 205.164 33.2308 201.476 33.2308" fill="#1A171C" fill-rule="evenodd" transform="matrix(1.01007 0 0 1 233 472)"/></g></svg>