<svg width="201" height="43" xmlns="http://www.w3.org/2000/svg" xmlns:xlink="http://www.w3.org/1999/xlink" xml:space="preserve" overflow="hidden"><defs><clipPath id="clip0"><rect x="187" y="45" width="201" height="43"/></clipPath></defs><g clip-path="url(#clip0)" transform="translate(-187 -45)"><path d="M83.6586 17.6722C83.5877 16.6877 82.9879 16.6861 82.2202 17.2963 79.0961 19.7785 77.5653 19.3145 76.0778 18.7983 74.59 18.2822 73.9671 15.0903 76.6053 15.1365 79.2452 15.1842 80.6849 17.9527 80.5882 20.6299 80.4926 23.3059 78.9083 26.638 75.0225 26.7319 71.1364 26.8258 69.5043 23.0702 69.4568 21.0043 69.409 18.9386 70.3198 17.8586 70.6074 17.5783 70.8965 17.2963 70.9919 17.0607 70.6552 17.1085 67.92 17.6244 63.4587 22.648 63.4095 24.1964 63.3764 25.3226 64.4405 25.6015 64.5618 24.0562 64.6585 22.8361 63.1696 19.9245 62.3066 19.2681 61.8758 20.1603 59.956 23.352 58.2284 25.5118 57.7658 26.0902 56.5963 26.826 55.7331 26.4979 54.8687 26.1682 54.3411 25.5118 54.2456 24.5259L54.2456 17.5785C53.8611 17.1087 50.6474 23.5866 49.7352 25.1362 48.823 26.6858 46.9986 27.4869 46.9525 24.8081 46.9047 22.0382 47 18.6105 46.8079 18.0005 46.3928 16.6808 43.2575 23.3061 41.5299 25.4659 41.0685 26.0427 40.2345 26.8262 39.3715 26.4979 38.507 26.1684 38.1716 25.512 38.0746 24.5261 37.9793 23.5402 37.8347 17.9529 37.8347 17.9529 37.2594 17.2026 33.8535 24.5725 33.2288 25.7001 32.5843 26.8624 32.4612 26.6382 31.789 26.2623 31.1169 25.8879 31.1169 25.794 31.0692 24.7603 31.0214 23.7283 30.9997 20.4408 31.0214 19.3147 31.0692 16.7804 31.0692 14.4327 31.0214 12.085 30.9738 9.73879 31.6937 7.0614 33.0365 5.32519 34.3811 3.58756 37.787 3.40095 37.4995 7.81313 37.1667 12.9205 32.3168 17.4843 29.9661 18.6105 29.4832 18.8418 26.8638 20.0158 24.4481 19.2683 20.6577 18.0944 22.8059 12.9611 26.0788 15.9347 27.4218 17.1548 27.9032 18.8449 27.854 20.5825 27.8064 22.32 26.7033 26.5441 22.576 26.7321 18.4502 26.92 17.2504 23.0241 17.2024 21.6623 17.1722 20.8181 17.1548 19.6905 17.3457 19.2683 17.7836 18.3041 17.2504 18.6583 16.9625 18.8449 14.8723 20.2095 13.3643 22.0382 11.9246 23.6805 7.78577 28.4063 7.07732 32.7894 6.9342 34.3854 6.78966 35.9813 7.07712 37.6236 8.27719 37.6714 10.2911 37.7494 11.4446 33.8678 11.5399 30.6759 11.66 26.686 9.86007 20.6301 9.71695 15.9347 9.5724 11.2408 11.6845 6.63919 12.0677 5.79497 12.4521 4.94933 12.26 4.71495 11.2523 5.13716 8.89295 6.12592 6.30967 10.6304 6.40664 15.3245 6.50219 20.0184 7.70206 22.46 9.86027 24.9481L9.04505 26.216 8.66183 25.8401C5.58999 22.8361 3.66412 20.9582 3.6239 15.3245 3.5749 8.70491 9.30515 4.34194 12.74 3.63492 13.6508 3.44709 13.7 4.10491 13.4123 5.08938 13.1232 6.07529 12.5001 9.69082 12.7878 13.5867 13.0756 17.4841 13.6624 21.334 13.8445 26.1219 14.1728 34.8233 9.74043 40.0189 7.46197 40.0189 5.44687 40.0189 5.11143 37.859 5.11143 35.8396 5.11143 33.8215 6.50219 27.9536 11.2527 22.32 16.0029 16.6863 19.6979 15.3723 20.8502 15.1365 22.0008 14.9023 22.2407 15.1842 21.3285 16.1701 20.4163 17.1546 19.8408 18.3761 19.9855 20.3469 20.1287 22.3202 21.2332 24.2905 23.2485 24.1966 25.2636 24.1041 26.3942 21.4759 26.4159 20.5825 26.4634 18.5644 25.6886 18.0627 24.9759 17.2487 24.4006 16.5926 23.5809 17.4251 24.6882 17.7663 26.3667 18.2824 28.3342 18.1407 29.8217 17.2487 31.3093 16.3567 35.8196 13.1185 35.8196 7.95318 35.8196 5.41911 35.532 5.51302 35.1967 5.51302 34.8599 5.51302 33.7568 6.35744 33.66 11.8031 33.5644 17.2487 33.709 20.3945 33.709 20.8643 33.709 21.3342 33.66 22.32 34.3813 20.8643 35.1 19.4086 37.3057 14.7608 39.1793 14.7608 40.4268 14.7608 40.9545 15.8408 40.9545 16.5926 40.9545 17.5307 40.9055 22.4141 40.9055 23.0241 40.9055 23.5402 41.1946 23.5402 41.5301 23.118 41.8653 22.6946 45.4651 17.2026 46.3279 15.7006 46.6881 15.0746 47.0739 14.664 48.0556 14.6165 49.9755 14.5223 49.9263 17.4368 49.9263 19.3622 49.9263 20.3469 49.9753 20.8167 49.9753 21.4745 49.9753 21.9429 50.1201 22.0382 50.5031 21.2865 50.9353 20.4423 53.0459 16.2628 53.766 15.465 54.4859 14.6669 54.7317 14.3417 55.4993 14.3417 56.267 14.3417 57.5087 14.3388 57.4609 18.0946 57.4132 21.8504 57.4609 23.6341 57.4609 23.6341 57.4609 23.9161 57.6533 24.0564 57.9887 23.5402 58.3239 23.0241 62.4991 15.9825 62.8343 14.9025 63.1698 13.8225 63.8421 14.3849 63.8898 15.1367 63.9376 15.8884 66.9617 20.0664 66.8171 22.6946 66.674 25.3242 65.1865 26.5443 63.8896 26.4982 62.5944 26.4518 62.0191 25.3704 62.0191 24.3381 62.0191 23.3061 63.219 21.3342 64.6097 20.0186 66.0017 18.7046 69.3629 14.8706 74.158 14.6669 75.2626 14.6205 75.0702 15.465 74.3026 16.1703 73.5349 16.8743 72.6705 18.8449 72.7197 20.2067 72.7675 21.5684 73.6303 23.9624 75.8379 23.9624 78.0455 23.9624 79.0053 22.2262 79.0531 20.3006 79.1008 18.3763 78.1409 17.2965 77.7086 16.9684 76.6721 16.1775 75.773 17.3978 77.2779 17.7663 78.6208 18.0946 80.6853 17.1087 81.9806 16.0764 83.2758 15.0428 83.6112 14.7608 84.8111 14.8071 86.0109 14.8549 86.6816 16.1703 86.6816 18.1407L86.6816 20.7704C86.6816 21.1462 87.0663 21.5221 87.5462 20.4886 87.7776 19.9898 89.1769 16.8267 90.4243 15.5125 91.672 14.1971 92.1042 14.3849 92.5844 14.3849 93.0642 14.3849 94.3161 14.7608 94.3161 17.2965L94.3161 23.2121C94.3161 23.9161 94.692 23.9624 95.0823 23.4939 95.458 23.0243 95.8918 22.5543 96.369 21.9904 96.8604 21.4282 98.0603 21.5221 97.1495 22.8363 96.2244 24.1503 95.1256 26.9679 93.2565 26.9202 91.3843 26.8738 91.0489 24.8542 91.0013 24.1041 90.9535 23.3522 90.809 18.7522 90.8568 18.1885 90.9045 17.6248 90.517 17.7404 90.2337 18.2346 89.8014 18.9864 87.4448 23.7252 86.7308 24.9483 86.1541 25.9343 85.6755 26.7321 84.9542 26.7321 84.2355 26.7321 83.708 26.1221 83.708 24.6201 83.708 23.118 83.7558 18.9864 83.659 17.6724M190.176 17.6722C190.104 16.6877 189.511 16.6861 188.745 17.2963 185.622 19.7785 184.09 19.3145 182.601 18.7983 181.112 18.2822 180.491 15.0903 183.136 15.1365 185.767 15.1842 187.213 17.9527 187.112 20.6299 187.01 23.3059 185.435 26.638 181.546 26.7319 177.657 26.8258 176.023 23.0702 175.98 21.0043 175.937 18.9386 176.847 17.8586 177.137 17.5783 177.426 17.2963 177.512 17.0607 177.18 17.1085 174.448 17.6244 169.981 22.648 169.937 24.1964 169.894 25.3226 170.964 25.6015 171.079 24.0562 171.181 22.8361 169.692 19.9245 168.824 19.2681 168.39 20.1603 166.482 23.352 164.748 25.5118 164.285 26.0902 163.114 26.826 162.261 26.4979 161.394 26.1682 160.859 25.5118 160.772 24.5259L160.772 17.5785C160.382 17.1087 157.172 23.5866 156.261 25.1362 155.351 26.6858 153.515 27.4869 153.471 24.8081 153.428 22.0382 153.529 18.6105 153.327 18.0005 152.922 16.6808 149.785 23.3061 148.05 25.4659 147.588 26.0427 146.764 26.8262 145.896 26.4979 145.029 26.1684 144.696 25.512 144.595 24.5261 144.494 23.5402 144.364 17.9529 144.364 17.9529 143.786 17.2026 140.374 24.5725 139.752 25.7001 139.102 26.8624 138.986 26.6382 138.307 26.2623 137.642 25.8879 137.642 25.794 137.598 24.7603 137.541 23.7283 137.526 20.4408 137.541 19.3147 137.598 16.7804 137.598 14.4327 137.541 12.085 137.497 9.73879 138.22 7.0614 139.564 5.32519 140.909 3.58756 144.306 3.40095 144.017 7.81313 143.684 12.9205 138.841 17.4843 136.485 18.6105 136.008 18.8418 133.392 20.0158 130.977 19.2683 127.175 18.0944 129.329 12.9611 132.596 15.9347 133.941 17.1548 134.418 18.8449 134.375 20.5825 134.331 22.32 133.232 26.5441 129.098 26.7321 124.978 26.92 123.778 23.0241 123.72 21.6623 123.691 20.8181 123.677 19.6905 123.865 19.2683 124.313 18.3041 123.778 18.6583 123.489 18.8449 121.393 20.2095 119.889 22.0382 118.444 23.6805 114.309 28.4063 113.601 32.7894 113.456 34.3854 113.312 35.9813 113.601 37.6236 114.801 37.6714 116.81 37.7494 117.967 33.8678 118.068 30.6759 118.183 26.686 116.391 20.6301 116.246 15.9347 116.102 11.2408 118.212 6.63919 118.588 5.79497 118.978 4.94933 118.776 4.71495 117.779 5.13716 115.422 6.12612 112.835 10.6306 112.936 15.3247 113.023 20.0186 114.222 22.4602 116.391 24.9483L115.567 26.2162 115.191 25.8403C112.112 22.8363 110.189 20.9584 110.146 15.3247 110.102 8.70512 115.827 4.34215 119.268 3.63513 120.178 3.4473 120.222 4.10511 119.933 5.08959 119.644 6.07549 119.022 9.69102 119.311 13.5869 119.6 17.4843 120.193 21.3342 120.366 26.1221 120.699 34.8235 116.261 40.0191 113.991 40.0191 111.967 40.0191 111.635 37.8592 111.635 35.8398 111.635 33.8217 113.023 27.9538 117.779 22.3202 122.52 16.6865 126.221 15.3725 127.378 15.1367 128.52 14.9025 128.766 15.1844 127.855 16.1703 126.944 17.1548 126.366 18.3763 126.51 20.3469 126.655 22.3202 127.754 24.2905 129.777 24.1966 131.787 24.1041 132.914 21.4759 132.943 20.5825 132.987 18.5644 132.206 18.0627 131.498 17.2487 130.92 16.5926 130.11 17.4251 131.209 17.7663 132.886 18.2824 134.852 18.1407 136.341 17.2487 137.83 16.3567 142.34 13.1185 142.34 7.95318 142.34 5.41911 142.051 5.51302 141.718 5.51302 141.386 5.51302 140.273 6.35744 140.186 11.8031 140.085 17.2487 140.229 20.3945 140.229 20.8643 140.229 21.3342 140.186 22.32 140.909 20.8643 141.617 19.4086 143.829 14.7608 145.708 14.7608 146.952 14.7608 147.472 15.8408 147.472 16.5926 147.472 17.5307 147.429 22.4141 147.429 23.0241 147.429 23.5402 147.718 23.5402 148.05 23.118 148.383 22.6946 151.982 17.2026 152.85 15.7006 153.211 15.0746 153.602 14.7161 154.585 14.6669 156.493 14.5744 156.45 17.4368 156.45 19.3622 156.45 20.3469 156.493 20.8167 156.493 21.4745 156.493 21.9429 156.637 22.0382 157.028 21.2865 157.461 20.4423 159.572 16.2628 160.295 15.465 161.003 14.6669 161.191 14.3604 161.957 14.3604 162.565 14.3604 164.039 14.1667 163.981 18.0946 163.938 21.8504 163.981 23.6341 163.981 23.6341 163.981 23.9161 164.169 24.0564 164.516 23.5402 164.849 23.0241 169.027 15.9825 169.359 14.9025 169.692 13.8225 170.371 14.3849 170.415 15.1367 170.458 15.8884 173.479 20.0664 173.335 22.6946 173.19 25.3242 171.716 26.5443 170.414 26.4982 169.113 26.4518 168.549 25.3704 168.549 24.3381 168.549 23.3061 169.735 21.3342 171.137 20.0186 172.525 18.7046 175.879 14.8706 180.678 14.6669 181.792 14.6205 181.589 15.465 180.823 16.1703 180.057 16.8743 179.189 18.8449 179.247 20.2067 179.291 21.5684 180.158 23.9624 182.355 23.9624 184.567 23.9624 185.521 22.2262 185.579 20.3006 185.622 18.3763 184.669 17.2965 184.235 16.9684 183.194 16.1775 182.298 17.3978 183.801 17.7663 185.145 18.0946 187.213 17.1087 188.499 16.0764 189.8 15.0428 190.133 14.7608 191.333 14.8071 192.533 14.8549 193.212 16.1703 193.212 18.1407L193.212 20.7704C193.212 21.1462 193.588 21.5221 194.065 20.4886 194.296 19.9898 195.699 16.8267 196.942 15.5125 198.199 14.1971 198.633 14.3849 199.11 14.3849 199.587 14.3849 200.831 14.7608 200.831 17.2965L200.831 23.2121C200.831 23.9161 201.221 23.9624 201.597 23.4939 201.987 23.0243 202.421 22.5543 202.898 21.9904 203.375 21.4282 204.575 21.5221 203.664 22.8363 202.753 24.1503 201.655 26.9679 199.775 26.9202 197.91 26.8738 197.578 24.8542 197.52 24.1041 197.477 23.3522 197.332 18.7522 197.375 18.1885 197.433 17.6246 197.043 17.7404 196.754 18.2346 196.32 18.9864 193.964 23.7252 193.255 24.9483 192.677 25.9343 192.2 26.7321 191.477 26.7321 190.754 26.7321 190.234 26.1221 190.234 24.6201 190.234 23.118 190.278 18.9864 190.176 17.6724" fill="#EC1B24" transform="matrix(1 0 0 1.01872 183.425 44.3837)"/><path d="M105.057 17.7663C105.505 17.6187 105.968 17.3902 106.358 17.2485 106.734 17.1085 107.081 17.1085 107.356 17.9527 107.645 18.7983 108.295 21.879 107.746 24.5259 107.356 26.4038 106.3 26.9242 106.112 24.3842 105.968 22.4141 103.626 20.7701 102.758 20.7701 101.891 20.7701 101.457 21.0043 101.501 21.4743 101.559 21.9427 102.527 22.7536 103.525 22.8822 105.346 23.1178 109.958 21.7561 112.17 22.0843L113.702 23.7279C110.912 22.038 107.5 24.2903 104.435 24.2903 101.747 24.2903 98.754 23.5864 98.6817 21.3802 98.6239 20.0184 100.07 19.5052 101.501 19.4562 102.86 19.4084 104.32 19.6195 105.534 20.8165 105.823 21.0982 105.968 21.146 105.924 20.6299 105.881 20.1123 105.245 18.9386 104.912 18.5164 104.58 18.0944 104.768 17.8586 105.057 17.7661" fill="#EC1B24" transform="matrix(1 0 0 1.01872 183.425 44.3837)"/></g></svg>